<svg width="48" height="48" xmlns="http://www.w3.org/2000/svg">

 <g>
  <title>background</title>
  <rect fill="none" id="canvas_background" height="402" width="582" y="-1" x="-1"/>
 </g>
 <g>
  <title>Layer 1</title>
  <path fill="#314855" id="svg_2" d="m44.551998,31.386l1.448002,-1.448l-2.691002,-2.691999l-1.426998,1.424999c-0.879002,-0.591 -1.863998,-1.028999 -2.917999,-1.302l0,-2.219999l-4.780003,0l0,2.219999c-1.028999,0.268 -1.993999,0.694 -2.856998,1.267l-1.483,-1.486l-2.691999,2.694l1.483,1.483999c-0.575001,0.868 -1.004,1.84 -1.27,2.875l-2.216,0l0,4.747002l2.216,0c0.271,1.057999 0.711,2.050999 1.306,2.933998l-1.521,1.521l2.693001,2.691002l1.543999,-1.542999c0.853003,0.555 1.798002,0.973 2.808001,1.230999l0,2.216l4.762001,0l0,-2.216c1.033001,-0.267002 2.001999,-0.695 2.867001,-1.269001l1.484997,1.485001l2.691002,-2.691002l-1.484001,-1.482998c0.571003,-0.863998 1,-1.831001 1.268002,-2.862l2.216,0l0,-4.775002l-2.217999,0c-0.261002,-1.008999 -0.677002,-1.954998 -1.230003,-2.802999zm-7.978996,9.105001c-2.162003,0 -3.916,-1.755001 -3.916,-3.917c0,-2.163002 1.753998,-3.917 3.916,-3.917c2.162998,0 3.917999,1.753998 3.917999,3.917c0,2.161999 -1.755001,3.917 -3.917999,3.917z"/>
  <polygon fill="#314855" id="svg_3" points="14.212,33.285 14.212,27.627 5.728,19.143 14.212,10.658 14.212,5 0.071,19.143  "/>
  <polygon fill="#314855" id="svg_4" points="38.549,22.938 44.206,22.938 48,19.143 33.859,5 33.859,10.658 42.344,19.143  "/>
 </g>
</svg>