<svg width="1024" height="768.0000000000001" xmlns="http://www.w3.org/2000/svg">

 <g>
  <title>background</title>
  <rect fill="none" id="canvas_background" height="770" width="1026" y="-1" x="-1"/>
 </g>
 <g>
  <title fill="#314855">Layer 1</title>
  <polygon fill="#314855" id="svg_2" points="539.1500244140625,244.89999389648438 435.1499938964844,383.79998779296875 519.3499755859375,383.79998779296875 508.4499206542969,432.29998779296875 489.5499572753906,523.1000061035156 588.8500366210938,354.1999816894531 519.3499755859375,354.1999816894531 "/>
  <path fill="#314855" id="svg_3" d="m512.000024,39.599977l-297.6,172.2l0,344.4l297.6,172.2l297.6,-172.2l0,-344.4l-297.6,-172.2zm111,326.2l-124.2,168.8c-3.8,5.2 -9.8,8.1 -16,8.1c-2.7,0 -5.5,-0.6 -8.1,-1.7c-8.5,-3.8 -13.3,-13 -11.4,-22.2l19.8,-95.3l-69.9,0c-7.5,0 -14.4,-4.2 -17.8,-11c-3.4,-6.7 -2.6,-14.8 1.9,-20.8l119.1,-158.7c0.3,-0.4 0.6,-0.8 0.9,-1.1c1.2,-1.4 2.6,-2.7 4.1,-3.7c2.8,-1.8 6,-3 9.5,-3.3c0.5,0 1,-0.1 1.5,-0.1c0.4,0 0.7,0 1.1,0c10.5,0.6 18.8,9.2 18.8,19.8c0,1.5 -0.2,2.9 -0.5,4.3l-15.4,85.2l70.6,0c7.5,0 14.3,4.2 17.7,10.9c3.4,6.7 2.7,14.7 -1.7,20.8z"/>
 </g>
</svg>