<svg width="595.3" height="690" xmlns="http://www.w3.org/2000/svg">

 <g>
  <title>background</title>
  <rect fill="none" id="canvas_background" height="402" width="582" y="-1" x="-1"/>
 </g>
 <g>
  <title>Layer 1</title>
  <rect fill="#314855" id="svg_2" y="394" x="173.9" width="67.5" height="118.1"/>
  <polygon fill="#314855" id="svg_3" points="258.2,495.3 258.2,529 292,529 292,495.3 265.8,495.3   "/>
  <path fill="#314855" id="svg_4" d="m207.6,520.6c-4.7,0 -8.4,3.8 -8.4,8.4c0,4.7 3.8,8.4 8.4,8.4c4.7,0 8.4,-3.8 8.4,-8.4c0.1,-4.6 -3.7,-8.4 -8.4,-8.4z"/>
  <path fill="#314855" id="svg_5" d="m402.7,309.7l-204.6,0c-4.1,0 -7.4,3.3 -7.4,7.4l0,60.1l50.7,0c9.3,0 16.9,7.6 16.9,16.9l0,54.8l151.9,0l0,-131.8c-0.1,-4.1 -3.4,-7.4 -7.5,-7.4z"/>
  <path fill="#314855" id="svg_6" d="m297.6,76.6l-297.6,172.2l0,344.4l297.6,172.2l297.6,-172.2l0,-344.4l-297.6,-172.2zm129.4,394.4c0,13.4 -10.9,24.3 -24.3,24.3l-17.7,0l-76.1,0l0,33.7l42.2,0l0,16.9l-45.4,0l-16.9,0l-47.1,0l0,0c-0.1,0 -0.3,0 -0.4,0l-67.5,0c-9.3,0 -16.9,-7.6 -16.9,-16.9l0,-135c0,-9.3 7.5,-16.8 16.8,-16.9l0,-60.1c0,-13.4 10.9,-24.3 24.3,-24.3l204.6,0c13.4,0 24.3,10.9 24.3,24.3l0,154l0.1,0z"/>
 </g>
</svg>