<svg width="1024" height="768.0000000000001" xmlns="http://www.w3.org/2000/svg">

 <g>
  <title>background</title>
  <rect fill="none" id="canvas_background" height="770" width="1026" y="-1" x="-1"/>
 </g>
 <g>
  <title fill="#314855">Layer 1</title>
  <rect fill="#314855" id="svg_2" y="353.075006" x="388.517836" width="67.5" height="118.1"/>
  <polygon fill="#314855" id="svg_3" points="472.33214497566223,458.22145080566406 472.33214497566223,491.9214630126953 506.13210225105286,491.9214630126953 506.13210225105286,458.22145080566406 479.93212056159973,458.22145080566406 "/>
  <path fill="#314855" stroke="null" id="svg_4" d="m422.266845,482.073241c-4.7,0 -8.4,3.497065 -8.4,7.730355c0,4.325318 3.8,7.730355 8.4,7.730355c4.7,0 8.4,-3.497065 8.4,-7.730355c0.1,-4.23329 -3.7,-7.730355 -8.4,-7.730355z"/>
  <path fill="#314855" id="svg_5" d="m616.92856,271.542841l-204.6,0c-4.1,0 -7.4,3.3 -7.4,7.4l0,60.1l50.7,0c9.3,0 16.9,7.6 16.9,16.9l0,54.8l151.9,0l0,-131.8c-0.1,-4.1 -3.4,-7.4 -7.5,-7.4z"/>
  <path fill="#314855" id="svg_6" d="m512.000024,39.599977l-297.6,172.2l0,344.4l297.6,172.2l297.6,-172.2l0,-344.4l-297.6,-172.2zm129.4,394.4c0,13.4 -10.9,24.3 -24.3,24.3l-17.7,0l-76.1,0l0,33.7l42.2,0l0,16.9l-45.4,0l-16.9,0l-47.1,0l0,0c-0.1,0 -0.3,0 -0.4,0l-67.5,0c-9.3,0 -16.9,-7.6 -16.9,-16.9l0,-135c0,-9.3 7.5,-16.8 16.8,-16.9l0,-60.1c0,-13.4 10.9,-24.3 24.3,-24.3l204.6,0c13.4,0 24.3,10.9 24.3,24.3l0,154l0.1,0z"/>
 </g>
</svg>