<svg width="1024" height="768" xmlns="http://www.w3.org/2000/svg">
 <title/>
 <desc/>

 <g>
  <title>background</title>
  <rect fill="none" id="canvas_background" height="770" width="1026" y="-1" x="-1"/>
 </g>
 <g>
  <title fill="#314855">Layer 1</title>
  <path fill="#314855" stroke="null" id="Shape" d="m656.733679,318.090475l-24.122281,0l0,-37.662583c0,-52.727617 -53.069018,-94.156459 -120.611406,-94.156459c-67.542387,0 -120.611406,41.428842 -120.611406,94.156459l0,37.662583l-24.122281,0c-26.534509,0 -48.244562,16.948163 -48.244562,37.662583l0,188.312917c0,20.714421 21.710053,37.662583 48.244562,37.662583l289.467373,0c26.534509,0 48.244562,-16.948163 48.244562,-37.662583l0,-188.312917c0,-20.714421 -21.710053,-37.662583 -48.244562,-37.662583l0,0zm-144.733687,169.481626c-26.534509,0 -48.244562,-16.948163 -48.244562,-37.662583c0,-20.714421 21.710053,-37.662583 48.244562,-37.662583c26.534509,0 48.244562,16.948163 48.244562,37.662583c0,20.714421 -21.710053,37.662583 -48.244562,37.662583l0,0zm74.779071,-169.481626l-149.558143,0l0,-37.662583c0,-32.013196 33.771194,-58.377004 74.779071,-58.377004c41.007878,0 74.779071,26.363808 74.779071,58.377004l0,37.662583l0,0z"/>
 </g>
</svg>