<svg width="1024" height="768" xmlns="http://www.w3.org/2000/svg">

 <g>
  <title>background</title>
  <rect fill="none" id="canvas_background" height="770" width="1026" y="-1" x="-1"/>
 </g>
 <g>
  <title fill="#314855">Layer 1</title>
  <path fill="#314855" id="svg_2" d="m512.000024,39.599977l-297.6,172.2l0,344.4l297.6,172.2l297.6,-172.2l0,-344.4l-297.6,-172.2zm129.6,454.6c0,11.3 -9.2,20.5 -20.5,20.5l-165.8,0c-11.3,0 -20.5,-9.2 -20.5,-20.5l-32,0c-11.3,0 -20.5,-9.2 -20.5,-20.5l0,-197.8c0,-11.3 9.2,-20.5 20.5,-20.5l197.8,0c11.3,0 20.5,9.2 20.5,20.5l0,32c11.3,0 20.5,9.2 20.5,20.5l0,165.8z"/>
  <path fill="#314855" id="svg_3" d="m610.994525,283.700012l-197.9,0c-0.8,0 -1.4,0.6 -1.4,1.4l0,197.8c0,0.8 0.6,1.4 1.4,1.4l197.8,0c0.8,0 1.4,-0.6 1.4,-1.4l0,-197.8c0.1,-0.8 -0.5,-1.4 -1.3,-1.4zm-26.7,53.9l-119.4,0l0,109.9l-23.9,0l0,-133.7l143.3,0l0,23.8z"/>
 </g>
</svg>